#!OML:ASF X:\für Bonn\!DataBase\2005_08_11_Bastian_Final\c3d\Bastian.ASF
:FULLY-SPECIFIED
:DEGREES
65
root 2.14896 22.3636 -6.80386 717.176 -1.99511 -5.77612
lowerback 22.6156 1.62043 -1.80222
upperback 7.31882 1.64085 -0.781249
thorax -4.62757 0.79199 -0.237311
lowerneck -13.7496 -5.87968 -12.1922
upperneck -4.42046 -6.18737 14.4648
head 1.80266 -2.62817 6.06365
rclavicle -5.96354e-015 -1.51076e-014
rhumerus -43.6024 5.03205 -90.5592
rradius 46.0375
rwrist 1.46846
rhand -19.832 20.2572
rfingers 7.12502
rthumb 6.50204 -9.62298
lclavicle -5.96354e-015 -1.51076e-014
lhumerus -35.4699 15.7107 72.3197
lradius 52.1706
lwrist -181.069
lhand -21.4831 6.49746
lfingers 7.12502
lthumb 4.90793 36.4206
rfemur -28.436 -2.08589 29.2456
rtibia 48.9547
rfoot 9.67902 -17.733
rtoes 38.9578
lfemur -27.9097 5.65782 -14.1182
ltibia 49.2481
lfoot 14.2078 -9.97229
ltoes -36.5172
66
root 2.14313 22.1568 -6.58406 717.235 -1.80217 -6.14928
lowerback 22.6075 1.58554 -1.56476
upperback 7.18908 1.65557 -0.645835
thorax -4.76286 0.800324 -0.232744
lowerneck -13.7435 -5.91696 -12.1036
upperneck -4.4408 -6.24927 14.4524
head 1.80061 -2.66057 6.0402
rclavicle 1.98785e-014 -7.95139e-016
rhumerus -44.0831 4.72169 -90.5002
rradius 44.5045
rwrist 0.248478
rhand -20.2934 20.0716
rfingers 7.12502
rthumb 6.05652 -9.82186
lclavicle 1.98785e-014 -7.95139e-016
lhumerus -35.6589 17.0855 71.64
lradius 50.0229
lwrist -181.618
lhand -21.4633 6.1723
lfingers 7.12502
lthumb 4.92699 36.095
rfemur -28.3653 -2.52023 29.636
rtibia 48.2427
rfoot 10.2693 -17.5013
rtoes 38.5821
lfemur -27.6268 5.04906 -13.5157
ltibia 48.0949
lfoot 14.5814 -8.96529
ltoes -36.4364
67
root 2.13819 21.9339 -6.36078 717.302 -1.56228 -6.43694
lowerback 22.5032 1.55352 -1.38856
upperback 7.10324 1.66336 -0.522004
thorax -4.80286 0.804781 -0.200857
lowerneck -13.986 -5.98887 -11.8474
upperneck -4.25084 -6.37089 14.2135
head 1.88931 -2.7183 5.90579
rclavicle -3.33958e-014 9.54166e-015
rhumerus -44.5293 4.36169 -90.3739
rradius 43.1368
rwrist -0.811668
rhand -20.6577 19.5873
rfingers 7.12502
rthumb 5.70482 -10.3159
lclavicle -3.33958e-014 9.54166e-015
lhumerus -35.7448 18.3666 70.9758
lradius 47.8823
lwrist -181.906
lhand -21.5754 5.79188
lfingers 7.12502
lthumb 4.81878 35.7171
rfemur -28.2967 -2.93766 29.9042
rtibia 47.6235
rfoot 10.6443 -17.2725
rtoes 38.8419
lfemur -27.3582 4.40356 -13.0303
ltibia 46.9793
lfoot 15.0146 -8.03324
ltoes -35.9775
68
root 2.13343 21.6944 -6.13768 717.481 -1.27342 -6.58078
lowerback 22.2432 1.50549 -1.31483
upperback 7.01124 1.62749 -0.461177
thorax -4.77068 0.788256 -0.163502
lowerneck -14.4421 -6.0583 -11.3594
upperneck -3.89023 -6.51288 13.7146
head 2.04223 -2.78579 5.64392
rclavicle -2.10712e-014 1.19271e-014
rhumerus -44.8782 3.93038 -90.2198
rradius 41.8352
rwrist -1.69052
rhand -20.8978 19.0155
rfingers 7.12502
rthumb 5.47303 -10.8938
lclavicle -2.10712e-014 1.19271e-014
lhumerus -35.769 19.5985 70.2739
lradius 45.7394
lwrist -181.835
lhand -21.9178 5.37639
lfingers 7.12502
lthumb 4.4881 35.3088
rfemur -28.4024 -3.39174 30.0263
rtibia 47.1367
rfoot 10.9638 -16.9622
rtoes 39.3286
lfemur -27.2433 3.69294 -12.7205
ltibia 45.9126
lfoot 15.418 -7.10671
ltoes -35.243
69
root 2.12936 21.4416 -5.91366 717.887 -0.917306 -6.54374
lowerback 21.6443 1.46156 -1.38416
upperback 6.91318 1.57047 -0.452965
thorax -4.57379 0.761604 -0.0884787
lowerneck -14.8731 -6.15003 -10.8552
upperneck -3.66194 -6.68118 13.2229
head 2.15396 -2.86967 5.38214
rclavicle -5.56597e-015 2.38542e-015
rhumerus -45.166 3.43664 -90.0512
rradius 40.6741
rwrist -2.45136
rhand -20.9718 18.1706
rfingers 7.12502
rthumb 5.40161 -11.7406
lclavicle -5.56597e-015 2.38542e-015
lhumerus -35.7225 20.6467 69.6576
lradius 43.6729
lwrist -181.483
lhand -22.3712 4.9648
lfingers 7.12502
lthumb 4.05031 34.906
rfemur -28.8198 -3.8365 29.9537
rtibia 46.7127
rfoot 11.3796 -16.6445
rtoes 39.8193
lfemur -27.4251 2.87779 -12.6241
ltibia 44.9421
lfoot 15.6672 -6.14764
ltoes -35.0797
70
root 2.12597 21.1781 -5.68975 718.482 -0.568565 -6.24842
lowerback 20.7782 1.43302 -1.68193
upperback 6.79247 1.48908 -0.533474
thorax -4.26501 0.722508 0.0320304
lowerneck -15.2294 -6.24095 -10.466
upperneck -3.54863 -6.8348 12.9126
head 2.23047 -2.94471 5.20049
rclavicle 1.27222e-014 -3.97569e-015
rhumerus -45.2767 2.89938 -89.8998
rradius 39.2924
rwrist -3.03909
rhand -20.9028 17.2783
rfingers 7.12502
rthumb 5.46822 -12.6312
lclavicle 1.27222e-014 -3.97569e-015
lhumerus -35.6539 21.5271 69.0984
lradius 41.6749
lwrist -180.757
lhand -22.8191 4.51077
lfingers 7.12502
lthumb 3.61777 34.4598
rfemur -29.5259 -4.26154 29.6309
rtibia 46.3343
rfoot 12.128 -16.2664
rtoes 39.6315
lfemur -27.8437 2.09709 -12.8198
ltibia 44.1024
lfoot 15.901 -5.26914
ltoes -34.8702
